#!OML:ASF H:\Pregnant\Project 1\Capture day 1\Session 1\femalepreg.ASF
:FULLY-SPECIFIED
:DEGREES
601
root 3.43025 15.7324 -31.3805 -146.622 104.656 -172.712
lowerback -16.7722 -2.4696 -6.33834
upperback -8.15457 -1.92785 0.797697
thorax 0.91022 -0.604768 4.09341
lowerneck -12.7568 -15.5539 -12.3453
upperneck 30.7328 -22.5959 10.105
head 15.6445 -9.72064 1.94037
rclavicle 3.68218e-015 -2.58917e-014
rhumerus -26.9667 -9.95524 -70.3347
rradius 23.1276
rwrist -7.6927
rhand -22.9784 -33.3087
rfingers 7.12502
rthumb 3.46393 -63.2603
lclavicle 3.68218e-015 -2.58917e-014
lhumerus -50.1438 -16.533 79.9535
lradius 36.0725
lwrist 37.2066
lhand -28.8745 -4.94129
lfingers 7.12502
lthumb -2.23051 25.0268
rfemur -59.6165 42.5004 -9.97622
rtibia 54.4109
rfoot -22.4638 14.1666
rtoes 10.0589
lfemur -50.0148 -22.9412 -5.02083
ltibia 33.2078
lfoot -15.4584 -3.56685
ltoes -9.28304
602
root 3.42809 15.7465 -31.4353 -146.825 105.925 -172.96
lowerback -16.7388 -2.40021 -6.73167
upperback -8.13267 -1.7852 0.723072
thorax 0.903277 -0.527712 4.26313
lowerneck -12.5393 -15.8304 -12.4344
upperneck 30.2344 -23.0535 10.365
head 15.4866 -9.93036 1.95998
rclavicle -1.44616e-014 1.18277e-014
rhumerus -27.6358 -11.192 -68.5255
rradius 22.6343
rwrist -8.43402
rhand -23.4703 -34.0547
rfingers 7.12502
rthumb 2.98888 -64.0135
lclavicle -1.44616e-014 1.18277e-014
lhumerus -48.9952 -15.8126 78.1407
lradius 35.4311
lwrist 36.358
lhand -27.8705 -6.83193
lfingers 7.12502
lthumb -1.26088 23.1441
rfemur -59.8132 42.1993 -10.1904
rtibia 54.6264
rfoot -22.2687 13.79
rtoes 9.20721
lfemur -49.5813 -22.7386 -5.52326
ltibia 32.9206
lfoot -15.4018 -2.63579
ltoes -10.4434
603
root 3.42668 15.7596 -31.4905 -147.061 107.141 -173.213
lowerback -16.6587 -2.35191 -6.99472
upperback -8.1301 -1.69334 0.631025
thorax 0.853761 -0.477775 4.33202
lowerneck -12.301 -16.0786 -12.5212
upperneck 29.816 -23.4742 10.6116
head 15.3577 -10.1239 1.98421
rclavicle -3.25199e-014 2.18663e-015
rhumerus -28.3303 -11.8651 -66.9519
rradius 22.2861
rwrist -9.28042
rhand -23.6576 -34.6395
rfingers 7.12502
rthumb 2.80807 -64.6008
lclavicle -3.25199e-014 2.18663e-015
lhumerus -47.8397 -14.6742 76.0857
lradius 34.6896
lwrist 35.402
lhand -27.151 -8.44254
lfingers 7.12502
lthumb -0.565967 21.5365
rfemur -59.9077 41.8679 -10.2632
rtibia 54.8234
rfoot -22.164 13.2603
rtoes 7.76499
lfemur -49.1632 -22.599 -5.96918
ltibia 32.6606
lfoot -15.3363 -1.68841
ltoes -11.597
604
root 3.42609 15.7708 -31.5475 -147.315 108.29 -173.478
lowerback -16.5896 -2.28119 -7.13971
upperback -8.11549 -1.5877 0.504478
thorax 0.818417 -0.425547 4.2992
lowerneck -12.0823 -16.3209 -12.5464
upperneck 29.42 -23.8947 10.8468
head 15.2349 -10.311 1.99436
rclavicle 5.1069e-014 -1.19271e-014
rhumerus -29.0454 -12.2098 -65.5343
rradius 22.0803
rwrist -10.1153
rhand -23.5048 -35.0345
rfingers 7.12502
rthumb 2.95557 -64.9938
lclavicle 5.1069e-014 -1.19271e-014
lhumerus -46.8095 -13.6094 74.0875
lradius 34.1863
lwrist 34.8001
lhand -26.8239 -9.60656
lfingers 7.12502
lthumb -0.250027 20.373
rfemur -59.9201 41.4739 -10.201
rtibia 55.0046
rfoot -22.1395 12.6221
rtoes 5.88303
lfemur -48.8162 -22.617 -6.28247
ltibia 32.4382
lfoot -15.2396 -0.620068
ltoes -12.6545
605
root 3.42611 15.7806 -31.6038 -147.626 109.432 -173.813
lowerback -16.5556 -2.19824 -7.21652
upperback -8.09606 -1.47271 0.374504
thorax 0.804657 -0.371295 4.22508
lowerneck -11.938 -16.5007 -12.519
upperneck 29.0283 -24.2197 11.0696
head 15.1074 -10.451 2.0099
rclavicle -7.03822e-015 6.95746e-015
rhumerus -29.7534 -12.1896 -64.2916
rradius 22.0134
rwrist -10.9512
rhand -23.0805 -35.2043
rfingers 7.12502
rthumb 3.36533 -65.1575
lclavicle -7.03822e-015 6.95746e-015
lhumerus -45.9751 -12.6305 72.2034
lradius 33.9959
lwrist 34.6622
lhand -27.4449 -9.82603
lfingers 7.12502
lthumb -0.849774 20.152
rfemur -59.9285 41.0648 -10.0765
rtibia 55.1697
rfoot -22.1246 11.9277
rtoes 3.99793
lfemur -48.5086 -22.6587 -6.52752
ltibia 32.247
lfoot -15.1393 0.503364
ltoes -13.4989
606
root 3.42665 15.7904 -31.66 -147.918 110.573 -174.157
lowerback -16.5595 -2.15046 -7.27275
upperback -8.09273 -1.40481 0.294617
thorax 0.800289 -0.339693 4.18383
lowerneck -11.8866 -16.5793 -12.5009
upperneck 28.6703 -24.3692 11.2485
head 14.9839 -10.5178 2.04389
rclavicle -3.30045e-014 2.127e-014
rhumerus -30.3849 -11.7282 -63.2071
rradius 22.0464
rwrist -11.7615
rhand -22.6032 -35.1851
rfingers 7.12502
rthumb 3.82629 -65.1305
lclavicle -3.30045e-014 2.127e-014
lhumerus -45.4929 -11.7865 70.5638
lradius 34.2508
lwrist 35.1782
lhand -29.2209 -8.95558
lfingers 7.12502
lthumb -2.56504 21.0087
rfemur -59.9487 40.6162 -9.92412
rtibia 55.3221
rfoot -22.0857 11.2368
rtoes 2.41343
lfemur -48.2308 -22.6011 -6.79776
ltibia 32.0743
lfoot -15.0514 1.52485
ltoes -14.0481
607
root 3.42748 15.8011 -31.7174 -148.14 111.726 -174.464
lowerback -16.6028 -2.20232 -7.38973
upperback -8.09122 -1.46165 0.39154
thorax 0.834133 -0.367491 4.34257
lowerneck -11.9454 -16.5309 -12.7147
upperneck 28.2818 -24.2552 11.4172
head 14.8654 -10.4941 2.15568
rclavicle 7.57867e-015 3.00165e-014
rhumerus -30.7545 -10.7492 -62.1823
rradius 22.1333
rwrist -12.3873
rhand -21.9798 -35.0323
rfingers 7.12502
rthumb 4.42824 -64.966
lclavicle 7.57867e-015 3.00165e-014
lhumerus -45.3577 -10.7156 69.2128
lradius 34.8662
lwrist 36.2187
lhand -31.7249 -7.44194
lfingers 7.12502
lthumb -4.98306 22.4795
rfemur -59.9987 40.1164 -9.78768
rtibia 55.4653
rfoot -21.9803 10.6468
rtoes 1.62049
lfemur -47.9785 -22.4329 -7.12217
ltibia 31.9026
lfoot -14.9832 2.43794
ltoes -14.381
608
root 3.42839 15.8127 -31.773 -148.322 112.906 -174.738
lowerback -16.6835 -2.30661 -7.55082
upperback -8.06815 -1.58094 0.576624
thorax 0.921557 -0.427194 4.60857
lowerneck -12.1256 -16.4286 -13.0381
upperneck 27.9266 -24.0163 11.5504
head 14.7794 -10.4235 2.28684
rclavicle -1.84746e-014 4.47266e-015
rhumerus -30.9282 -9.49065 -61.251
rradius 22.2624
rwrist -12.7696
rhand -21.3611 -34.7732
rfingers 7.12502
rthumb 5.02568 -64.6936
lclavicle -1.84746e-014 4.47266e-015
lhumerus -45.3442 -9.32395 67.9084
lradius 35.5838
lwrist 37.5133
lhand -34.4521 -5.7978
lfingers 7.12502
lthumb -7.61597 24.0451
rfemur -60.0546 39.6066 -9.64623
rtibia 55.6021
rfoot -21.8162 10.1213
rtoes 1.46163
lfemur -47.7021 -22.1146 -7.53101
ltibia 31.7254
lfoot -14.9594 3.20171
ltoes -14.4698
609
root 3.42942 15.8252 -31.8261 -148.498 114.095 -175.006
lowerback -16.7843 -2.38014 -7.66753
upperback -8.04497 -1.6619 0.70047
thorax 1.01362 -0.469979 4.79074
lowerneck -12.2805 -16.3256 -13.2614
upperneck 27.5807 -23.7951 11.6673
head 14.6763 -10.3523 2.39797
rclavicle 4.26579e-014 1.94809e-014
rhumerus -31.1254 -8.26333 -60.4542
rradius 22.4261
rwrist -12.8647
rhand -20.7613 -34.4362
rfingers 7.12502
rthumb 5.60478 -64.3421
lclavicle 4.26579e-014 1.94809e-014
lhumerus -45.2954 -7.84706 66.4999
lradius 36.2397
lwrist 38.9633
lhand -36.8844 -4.63762
lfingers 7.12502
lthumb -9.96313 25.1066
rfemur -60.0737 39.068 -9.43195
rtibia 55.7299
rfoot -21.6332 9.59686
rtoes 1.51732
lfemur -47.3975 -21.6543 -8.00856
ltibia 31.5419
lfoot -14.9723 3.81682
ltoes -14.5644
610
root 3.43033 15.8368 -31.8763 -148.703 115.287 -175.29
lowerback -16.8922 -2.41341 -7.74166
upperback -8.02039 -1.69299 0.760262
thorax 1.10249 -0.489798 4.88928
lowerneck -12.4101 -16.2278 -13.3653
upperneck 27.2569 -23.6045 11.7586
head 14.56 -10.2851 2.47965
rclavicle -3.07806e-014 -1.44119e-014
rhumerus -31.3834 -7.10104 -59.7834
rradius 22.6222
rwrist -12.6856
rhand -20.2624 -34.0233
rfingers 7.12502
rthumb 6.08649 -63.9158
lclavicle -3.07806e-014 -1.44119e-014
lhumerus -45.1859 -6.28921 64.9816
lradius 36.8069
lwrist 40.5321
lhand -38.139 -4.821
lfingers 7.12502
lthumb -11.1734 24.8615
rfemur -60.0367 38.4984 -9.11178
rtibia 55.851
rfoot -21.4199 9.09925
rtoes 1.87173
lfemur -47.0867 -21.2161 -8.44432
ltibia 31.3679
lfoot -15.0237 4.45418
ltoes -14.305
